<mxfile host="app.diagrams.net" modified="2020-11-18T13:10:01.186Z" agent="5.0 (Windows NT 10.0; Win64; x64) AppleWebKit/537.36 (KHTML, like Gecko) Chrome/87.0.4280.66 Safari/537.36" etag="MU354K-bGJkXHny7s1wv" version="13.9.9" type="github">
  <diagram id="DP33gihl63QsVpl_aVoG" name="Page-1">
    <mxGraphModel dx="2249" dy="1969" grid="1" gridSize="10" guides="1" tooltips="1" connect="1" arrows="1" fold="1" page="1" pageScale="1" pageWidth="827" pageHeight="1169" math="0" shadow="0">
      <root>
        <mxCell id="0" />
        <mxCell id="1" parent="0" />
        <mxCell id="n_1GqZ7e_dafPJzbi2lV-14" value="" style="rounded=1;whiteSpace=wrap;html=1;fontSize=17;" vertex="1" parent="1">
          <mxGeometry x="-250" y="-170" width="830" height="780" as="geometry" />
        </mxCell>
        <mxCell id="n_1GqZ7e_dafPJzbi2lV-12" value="" style="rounded=1;whiteSpace=wrap;html=1;fontSize=17;" vertex="1" parent="1">
          <mxGeometry x="-130" y="-50" width="690" height="630" as="geometry" />
        </mxCell>
        <mxCell id="n_1GqZ7e_dafPJzbi2lV-10" value="" style="rounded=1;whiteSpace=wrap;html=1;fontSize=17;" vertex="1" parent="1">
          <mxGeometry x="-10" y="30" width="550" height="530" as="geometry" />
        </mxCell>
        <mxCell id="n_1GqZ7e_dafPJzbi2lV-7" value="" style="rounded=1;whiteSpace=wrap;html=1;fontSize=17;" vertex="1" parent="1">
          <mxGeometry x="80" y="140" width="440" height="400" as="geometry" />
        </mxCell>
        <mxCell id="n_1GqZ7e_dafPJzbi2lV-4" value="" style="rounded=1;whiteSpace=wrap;html=1;fontSize=17;" vertex="1" parent="1">
          <mxGeometry x="170" y="210" width="330" height="310" as="geometry" />
        </mxCell>
        <mxCell id="n_1GqZ7e_dafPJzbi2lV-2" value="" style="rounded=1;whiteSpace=wrap;html=1;fontSize=17;" vertex="1" parent="1">
          <mxGeometry x="240" y="280" width="240" height="220" as="geometry" />
        </mxCell>
        <mxCell id="n_1GqZ7e_dafPJzbi2lV-1" value="Colomn:&lt;br&gt;&lt;br style=&quot;font-size: 17px&quot;&gt;Text Field&lt;br style=&quot;font-size: 17px&quot;&gt;Hidden&lt;br style=&quot;font-size: 17px&quot;&gt;Autocomplete&lt;br style=&quot;font-size: 17px&quot;&gt;.&lt;br style=&quot;font-size: 17px&quot;&gt;." style="rounded=1;whiteSpace=wrap;html=1;fontSize=17;" vertex="1" parent="1">
          <mxGeometry x="320" y="330" width="140" height="150" as="geometry" />
        </mxCell>
        <mxCell id="n_1GqZ7e_dafPJzbi2lV-3" value="Row" style="text;html=1;strokeColor=none;fillColor=none;align=center;verticalAlign=middle;whiteSpace=wrap;rounded=0;fontSize=17;" vertex="1" parent="1">
          <mxGeometry x="250" y="290" width="40" height="20" as="geometry" />
        </mxCell>
        <mxCell id="n_1GqZ7e_dafPJzbi2lV-6" value="Grid" style="text;html=1;strokeColor=none;fillColor=none;align=center;verticalAlign=middle;whiteSpace=wrap;rounded=0;fontSize=17;" vertex="1" parent="1">
          <mxGeometry x="190" y="230" width="40" height="20" as="geometry" />
        </mxCell>
        <mxCell id="n_1GqZ7e_dafPJzbi2lV-9" value="Panel" style="text;html=1;strokeColor=none;fillColor=none;align=center;verticalAlign=middle;whiteSpace=wrap;rounded=0;fontSize=17;" vertex="1" parent="1">
          <mxGeometry x="110" y="160" width="40" height="20" as="geometry" />
        </mxCell>
        <mxCell id="n_1GqZ7e_dafPJzbi2lV-11" value="Form" style="text;html=1;strokeColor=none;fillColor=none;align=center;verticalAlign=middle;whiteSpace=wrap;rounded=0;fontSize=17;" vertex="1" parent="1">
          <mxGeometry x="20" y="60" width="40" height="20" as="geometry" />
        </mxCell>
        <mxCell id="n_1GqZ7e_dafPJzbi2lV-13" value="Canvas(default)" style="text;html=1;strokeColor=none;fillColor=none;align=center;verticalAlign=middle;whiteSpace=wrap;rounded=0;fontSize=17;" vertex="1" parent="1">
          <mxGeometry x="-60" y="-10" width="40" height="20" as="geometry" />
        </mxCell>
        <mxCell id="n_1GqZ7e_dafPJzbi2lV-15" value="Layout(default)" style="text;html=1;strokeColor=none;fillColor=none;align=center;verticalAlign=middle;whiteSpace=wrap;rounded=0;fontSize=17;" vertex="1" parent="1">
          <mxGeometry x="-170" y="-120" width="40" height="20" as="geometry" />
        </mxCell>
      </root>
    </mxGraphModel>
  </diagram>
</mxfile>
